<mxfile host="Electron" agent="Mozilla/5.0 (Windows NT 10.0; Win64; x64) AppleWebKit/537.36 (KHTML, like Gecko) draw.io/26.0.4 Chrome/128.0.6613.186 Electron/32.2.5 Safari/537.36" version="26.0.4">
  <diagram name="Page-1" id="58cdce13-f638-feb5-8d6f-7d28b1aa9fa0">
    <mxGraphModel dx="3733" dy="2307" grid="0" gridSize="10" guides="1" tooltips="1" connect="1" arrows="1" fold="1" page="0" pageScale="1" pageWidth="1100" pageHeight="850" background="none" math="0" shadow="0">
      <root>
        <mxCell id="0" />
        <mxCell id="1" parent="0" />
        <mxCell id="kDdogtKYeGdFu2iAVPlt-49" style="edgeStyle=orthogonalEdgeStyle;rounded=0;orthogonalLoop=1;jettySize=auto;html=1;entryX=0.5;entryY=0;entryDx=0;entryDy=0;strokeWidth=2;" edge="1" parent="1" source="kDdogtKYeGdFu2iAVPlt-46" target="kDdogtKYeGdFu2iAVPlt-48">
          <mxGeometry relative="1" as="geometry">
            <Array as="points">
              <mxPoint x="76" y="873" />
              <mxPoint x="598" y="873" />
            </Array>
          </mxGeometry>
        </mxCell>
        <mxCell id="kDdogtKYeGdFu2iAVPlt-46" value="" style="rounded=1;whiteSpace=wrap;html=1;fillColor=none;strokeWidth=2;" vertex="1" parent="1">
          <mxGeometry x="-543" y="174" width="1237" height="597" as="geometry" />
        </mxCell>
        <mxCell id="ceck4IdtYcHGicZahIzw-30" style="edgeStyle=orthogonalEdgeStyle;rounded=0;orthogonalLoop=1;jettySize=auto;html=1;strokeWidth=2;" parent="1" source="ceck4IdtYcHGicZahIzw-2" target="ceck4IdtYcHGicZahIzw-18" edge="1">
          <mxGeometry relative="1" as="geometry">
            <Array as="points">
              <mxPoint x="598" y="158" />
              <mxPoint x="318" y="158" />
            </Array>
          </mxGeometry>
        </mxCell>
        <mxCell id="ceck4IdtYcHGicZahIzw-31" style="edgeStyle=orthogonalEdgeStyle;rounded=0;orthogonalLoop=1;jettySize=auto;html=1;strokeWidth=2;" parent="1" source="ceck4IdtYcHGicZahIzw-2" target="ceck4IdtYcHGicZahIzw-19" edge="1">
          <mxGeometry relative="1" as="geometry">
            <Array as="points">
              <mxPoint x="598" y="158" />
              <mxPoint x="862" y="158" />
            </Array>
          </mxGeometry>
        </mxCell>
        <mxCell id="ceck4IdtYcHGicZahIzw-2" value="&lt;b&gt;Login&lt;/b&gt;" style="whiteSpace=wrap;html=1;fontSize=20;fillColor=none;rounded=1;strokeWidth=2;" parent="1" vertex="1">
          <mxGeometry x="538" y="58" width="120" height="60" as="geometry" />
        </mxCell>
        <mxCell id="ceck4IdtYcHGicZahIzw-29" style="edgeStyle=orthogonalEdgeStyle;rounded=0;orthogonalLoop=1;jettySize=auto;html=1;entryX=0.5;entryY=0;entryDx=0;entryDy=0;strokeWidth=2;" parent="1" source="ceck4IdtYcHGicZahIzw-14" target="ceck4IdtYcHGicZahIzw-2" edge="1">
          <mxGeometry relative="1" as="geometry" />
        </mxCell>
        <mxCell id="ceck4IdtYcHGicZahIzw-14" value="" style="strokeWidth=2;html=1;shape=mxgraph.flowchart.start_2;whiteSpace=wrap;fillColor=none;" parent="1" vertex="1">
          <mxGeometry x="576" y="-110" width="43" height="43" as="geometry" />
        </mxCell>
        <mxCell id="ceck4IdtYcHGicZahIzw-17" style="edgeStyle=orthogonalEdgeStyle;rounded=0;orthogonalLoop=1;jettySize=auto;html=1;entryX=1;entryY=0.5;entryDx=0;entryDy=0;entryPerimeter=0;strokeWidth=2;fontSize=20;" parent="1" source="ceck4IdtYcHGicZahIzw-2" target="ceck4IdtYcHGicZahIzw-14" edge="1">
          <mxGeometry relative="1" as="geometry">
            <Array as="points">
              <mxPoint x="695" y="83" />
              <mxPoint x="695" y="-88" />
            </Array>
          </mxGeometry>
        </mxCell>
        <mxCell id="ceck4IdtYcHGicZahIzw-18" value="&lt;b&gt;Constituent&lt;/b&gt;&lt;div&gt;&lt;b&gt;Dashboard&lt;/b&gt;&lt;/div&gt;" style="whiteSpace=wrap;html=1;fontSize=20;fillColor=none;rounded=1;strokeWidth=2;" parent="1" vertex="1">
          <mxGeometry x="258" y="195" width="120" height="60" as="geometry" />
        </mxCell>
        <mxCell id="ceck4IdtYcHGicZahIzw-19" value="&lt;b&gt;Representative&lt;/b&gt;&lt;div&gt;&lt;b&gt;Dashboard&lt;/b&gt;&lt;b&gt;&lt;br&gt;&lt;/b&gt;&lt;/div&gt;" style="whiteSpace=wrap;html=1;fontSize=20;fillColor=none;rounded=1;strokeWidth=2;" parent="1" vertex="1">
          <mxGeometry x="784" y="195" width="154" height="77" as="geometry" />
        </mxCell>
        <mxCell id="kDdogtKYeGdFu2iAVPlt-31" style="edgeStyle=orthogonalEdgeStyle;rounded=0;orthogonalLoop=1;jettySize=auto;html=1;entryX=0.5;entryY=0;entryDx=0;entryDy=0;strokeWidth=2;" edge="1" parent="1" source="ceck4IdtYcHGicZahIzw-33" target="ceck4IdtYcHGicZahIzw-34">
          <mxGeometry relative="1" as="geometry" />
        </mxCell>
        <mxCell id="kDdogtKYeGdFu2iAVPlt-32" style="edgeStyle=orthogonalEdgeStyle;rounded=0;orthogonalLoop=1;jettySize=auto;html=1;entryX=0.5;entryY=0;entryDx=0;entryDy=0;strokeWidth=2;" edge="1" parent="1" source="ceck4IdtYcHGicZahIzw-33" target="ceck4IdtYcHGicZahIzw-36">
          <mxGeometry relative="1" as="geometry" />
        </mxCell>
        <mxCell id="kDdogtKYeGdFu2iAVPlt-33" style="edgeStyle=orthogonalEdgeStyle;rounded=0;orthogonalLoop=1;jettySize=auto;html=1;entryX=0.75;entryY=0;entryDx=0;entryDy=0;strokeWidth=2;" edge="1" parent="1" source="ceck4IdtYcHGicZahIzw-33" target="ceck4IdtYcHGicZahIzw-37">
          <mxGeometry relative="1" as="geometry">
            <Array as="points">
              <mxPoint x="198" y="501" />
              <mxPoint x="440" y="501" />
            </Array>
          </mxGeometry>
        </mxCell>
        <mxCell id="ceck4IdtYcHGicZahIzw-33" value="&lt;b&gt;Complaint Section&lt;/b&gt;" style="whiteSpace=wrap;html=1;fontSize=20;fillColor=none;rounded=1;strokeWidth=2;" parent="1" vertex="1">
          <mxGeometry x="138" y="412" width="120" height="60" as="geometry" />
        </mxCell>
        <mxCell id="kDdogtKYeGdFu2iAVPlt-34" style="edgeStyle=orthogonalEdgeStyle;rounded=0;orthogonalLoop=1;jettySize=auto;html=1;strokeWidth=2;" edge="1" parent="1" source="ceck4IdtYcHGicZahIzw-34" target="ceck4IdtYcHGicZahIzw-35">
          <mxGeometry relative="1" as="geometry" />
        </mxCell>
        <mxCell id="ceck4IdtYcHGicZahIzw-34" value="&lt;b&gt;Draft Complaint&lt;/b&gt;" style="whiteSpace=wrap;html=1;fontSize=20;fillColor=none;rounded=1;strokeWidth=2;" parent="1" vertex="1">
          <mxGeometry x="19" y="530" width="120" height="60" as="geometry" />
        </mxCell>
        <mxCell id="ceck4IdtYcHGicZahIzw-35" value="&lt;b&gt;Submit Complaint&lt;/b&gt;" style="whiteSpace=wrap;html=1;fontSize=20;fillColor=none;rounded=1;strokeWidth=2;" parent="1" vertex="1">
          <mxGeometry x="19" y="650" width="120" height="60" as="geometry" />
        </mxCell>
        <mxCell id="kDdogtKYeGdFu2iAVPlt-35" style="edgeStyle=orthogonalEdgeStyle;rounded=0;orthogonalLoop=1;jettySize=auto;html=1;strokeWidth=2;" edge="1" parent="1" source="ceck4IdtYcHGicZahIzw-36" target="ceck4IdtYcHGicZahIzw-40">
          <mxGeometry relative="1" as="geometry" />
        </mxCell>
        <mxCell id="ceck4IdtYcHGicZahIzw-36" value="&lt;b&gt;View Complaint&lt;/b&gt;" style="whiteSpace=wrap;html=1;fontSize=20;fillColor=none;rounded=1;strokeWidth=2;" parent="1" vertex="1">
          <mxGeometry x="170" y="530" width="120" height="60" as="geometry" />
        </mxCell>
        <mxCell id="ceck4IdtYcHGicZahIzw-37" value="&lt;b&gt;View Complaint History&lt;/b&gt;" style="whiteSpace=wrap;html=1;fontSize=20;fillColor=none;rounded=1;strokeWidth=2;" parent="1" vertex="1">
          <mxGeometry x="321" y="530" width="158" height="79" as="geometry" />
        </mxCell>
        <mxCell id="kDdogtKYeGdFu2iAVPlt-36" style="edgeStyle=orthogonalEdgeStyle;rounded=0;orthogonalLoop=1;jettySize=auto;html=1;strokeWidth=2;" edge="1" parent="1" source="ceck4IdtYcHGicZahIzw-38" target="ceck4IdtYcHGicZahIzw-39">
          <mxGeometry relative="1" as="geometry" />
        </mxCell>
        <mxCell id="ceck4IdtYcHGicZahIzw-38" value="&lt;b&gt;Event Calender&lt;/b&gt;" style="whiteSpace=wrap;html=1;fontSize=20;fillColor=none;rounded=1;strokeWidth=2;" parent="1" vertex="1">
          <mxGeometry x="537.5" y="412" width="120" height="60" as="geometry" />
        </mxCell>
        <mxCell id="ceck4IdtYcHGicZahIzw-39" value="&lt;b&gt;Virtual Meetup&lt;/b&gt;" style="whiteSpace=wrap;html=1;fontSize=20;fillColor=none;rounded=1;strokeWidth=2;" parent="1" vertex="1">
          <mxGeometry x="532" y="527.25" width="133" height="65.5" as="geometry" />
        </mxCell>
        <mxCell id="ceck4IdtYcHGicZahIzw-40" value="&lt;b&gt;Provide Feedback&lt;/b&gt;" style="whiteSpace=wrap;html=1;fontSize=20;fillColor=none;rounded=1;strokeWidth=2;" parent="1" vertex="1">
          <mxGeometry x="170" y="648" width="120" height="60" as="geometry" />
        </mxCell>
        <mxCell id="ceck4IdtYcHGicZahIzw-41" value="&lt;b&gt;Awareness Campaign&lt;/b&gt;" style="whiteSpace=wrap;html=1;fontSize=20;fillColor=none;rounded=1;strokeWidth=2;" parent="1" vertex="1">
          <mxGeometry x="-318" y="412" width="120" height="60" as="geometry" />
        </mxCell>
        <mxCell id="kDdogtKYeGdFu2iAVPlt-30" style="edgeStyle=orthogonalEdgeStyle;rounded=0;orthogonalLoop=1;jettySize=auto;html=1;strokeWidth=2;" edge="1" parent="1" source="ceck4IdtYcHGicZahIzw-42" target="kDdogtKYeGdFu2iAVPlt-5">
          <mxGeometry relative="1" as="geometry" />
        </mxCell>
        <mxCell id="ceck4IdtYcHGicZahIzw-42" value="&lt;b&gt;Statistics&lt;/b&gt;" style="whiteSpace=wrap;html=1;fontSize=20;fillColor=none;rounded=1;strokeWidth=2;" parent="1" vertex="1">
          <mxGeometry x="-143" y="415" width="120" height="60" as="geometry" />
        </mxCell>
        <mxCell id="kDdogtKYeGdFu2iAVPlt-26" style="edgeStyle=orthogonalEdgeStyle;rounded=0;orthogonalLoop=1;jettySize=auto;html=1;strokeWidth=2;" edge="1" parent="1" source="ceck4IdtYcHGicZahIzw-44" target="kDdogtKYeGdFu2iAVPlt-7">
          <mxGeometry relative="1" as="geometry" />
        </mxCell>
        <mxCell id="ceck4IdtYcHGicZahIzw-44" value="&lt;b&gt;Survey&lt;/b&gt;" style="whiteSpace=wrap;html=1;fontSize=20;fillColor=none;rounded=1;strokeWidth=2;" parent="1" vertex="1">
          <mxGeometry x="-508" y="409" width="120" height="60" as="geometry" />
        </mxCell>
        <mxCell id="kDdogtKYeGdFu2iAVPlt-37" style="edgeStyle=orthogonalEdgeStyle;rounded=0;orthogonalLoop=1;jettySize=auto;html=1;strokeWidth=2;" edge="1" parent="1" source="ceck4IdtYcHGicZahIzw-45" target="ceck4IdtYcHGicZahIzw-46">
          <mxGeometry relative="1" as="geometry" />
        </mxCell>
        <mxCell id="ceck4IdtYcHGicZahIzw-45" value="&lt;b&gt;Event Section&lt;/b&gt;" style="whiteSpace=wrap;html=1;fontSize=20;fillColor=none;rounded=1;strokeWidth=2;" parent="1" vertex="1">
          <mxGeometry x="809" y="412" width="120" height="60" as="geometry" />
        </mxCell>
        <mxCell id="kDdogtKYeGdFu2iAVPlt-38" style="edgeStyle=orthogonalEdgeStyle;rounded=0;orthogonalLoop=1;jettySize=auto;html=1;strokeWidth=2;" edge="1" parent="1" source="ceck4IdtYcHGicZahIzw-46" target="ceck4IdtYcHGicZahIzw-47">
          <mxGeometry relative="1" as="geometry" />
        </mxCell>
        <mxCell id="ceck4IdtYcHGicZahIzw-46" value="&lt;b&gt;Add Event&lt;/b&gt;" style="whiteSpace=wrap;html=1;fontSize=20;fillColor=none;rounded=1;strokeWidth=2;" parent="1" vertex="1">
          <mxGeometry x="802.5" y="533" width="133" height="65.5" as="geometry" />
        </mxCell>
        <mxCell id="ceck4IdtYcHGicZahIzw-47" value="&lt;b&gt;Update Event Calender&lt;/b&gt;" style="whiteSpace=wrap;html=1;fontSize=20;fillColor=none;rounded=1;strokeWidth=2;" parent="1" vertex="1">
          <mxGeometry x="803" y="675" width="133" height="65.5" as="geometry" />
        </mxCell>
        <mxCell id="kDdogtKYeGdFu2iAVPlt-39" style="edgeStyle=orthogonalEdgeStyle;rounded=0;orthogonalLoop=1;jettySize=auto;html=1;strokeWidth=2;" edge="1" parent="1" source="ceck4IdtYcHGicZahIzw-48" target="ceck4IdtYcHGicZahIzw-49">
          <mxGeometry relative="1" as="geometry" />
        </mxCell>
        <mxCell id="ceck4IdtYcHGicZahIzw-48" value="&lt;b&gt;Awareness Campaign Section&lt;/b&gt;" style="whiteSpace=wrap;html=1;fontSize=20;fillColor=none;rounded=1;strokeWidth=2;" parent="1" vertex="1">
          <mxGeometry x="1043" y="412" width="176" height="88" as="geometry" />
        </mxCell>
        <mxCell id="kDdogtKYeGdFu2iAVPlt-40" style="edgeStyle=orthogonalEdgeStyle;rounded=0;orthogonalLoop=1;jettySize=auto;html=1;strokeWidth=2;" edge="1" parent="1" source="ceck4IdtYcHGicZahIzw-49" target="ceck4IdtYcHGicZahIzw-50">
          <mxGeometry relative="1" as="geometry" />
        </mxCell>
        <mxCell id="ceck4IdtYcHGicZahIzw-49" value="&lt;b&gt;Draft Awareness Campaign&lt;/b&gt;" style="whiteSpace=wrap;html=1;fontSize=20;fillColor=none;rounded=1;strokeWidth=2;" parent="1" vertex="1">
          <mxGeometry x="1046" y="543" width="172" height="91" as="geometry" />
        </mxCell>
        <mxCell id="ceck4IdtYcHGicZahIzw-50" value="&lt;b&gt;Post Awareness Campaign&lt;/b&gt;" style="whiteSpace=wrap;html=1;fontSize=20;fillColor=none;rounded=1;strokeWidth=2;" parent="1" vertex="1">
          <mxGeometry x="1056" y="681" width="152.29" height="75" as="geometry" />
        </mxCell>
        <mxCell id="kDdogtKYeGdFu2iAVPlt-41" style="edgeStyle=orthogonalEdgeStyle;rounded=0;orthogonalLoop=1;jettySize=auto;html=1;strokeWidth=2;" edge="1" parent="1" source="ceck4IdtYcHGicZahIzw-51" target="ceck4IdtYcHGicZahIzw-52">
          <mxGeometry relative="1" as="geometry">
            <Array as="points">
              <mxPoint x="1455" y="512" />
              <mxPoint x="1365" y="512" />
            </Array>
          </mxGeometry>
        </mxCell>
        <mxCell id="kDdogtKYeGdFu2iAVPlt-42" style="edgeStyle=orthogonalEdgeStyle;rounded=0;orthogonalLoop=1;jettySize=auto;html=1;strokeWidth=2;" edge="1" parent="1" source="ceck4IdtYcHGicZahIzw-51" target="kDdogtKYeGdFu2iAVPlt-9">
          <mxGeometry relative="1" as="geometry">
            <Array as="points">
              <mxPoint x="1455" y="512" />
              <mxPoint x="1547" y="512" />
            </Array>
          </mxGeometry>
        </mxCell>
        <mxCell id="ceck4IdtYcHGicZahIzw-51" value="&lt;b&gt;Survey&lt;/b&gt;&lt;div&gt;&lt;b&gt;Section&lt;/b&gt;&lt;/div&gt;" style="whiteSpace=wrap;html=1;fontSize=20;fillColor=none;rounded=1;strokeWidth=2;" parent="1" vertex="1">
          <mxGeometry x="1395" y="415" width="120" height="60" as="geometry" />
        </mxCell>
        <mxCell id="ceck4IdtYcHGicZahIzw-52" value="&lt;b&gt;Create Survey&lt;/b&gt;" style="whiteSpace=wrap;html=1;fontSize=20;fillColor=none;rounded=1;strokeWidth=2;" parent="1" vertex="1">
          <mxGeometry x="1299" y="550" width="133" height="65.5" as="geometry" />
        </mxCell>
        <mxCell id="ceck4IdtYcHGicZahIzw-53" value="&lt;b&gt;Distribute Survey&lt;/b&gt;" style="whiteSpace=wrap;html=1;fontSize=20;fillColor=none;rounded=1;strokeWidth=2;" parent="1" vertex="1">
          <mxGeometry x="1292.5" y="685" width="133" height="65.5" as="geometry" />
        </mxCell>
        <mxCell id="kDdogtKYeGdFu2iAVPlt-44" style="edgeStyle=orthogonalEdgeStyle;rounded=0;orthogonalLoop=1;jettySize=auto;html=1;strokeWidth=2;" edge="1" parent="1" source="kDdogtKYeGdFu2iAVPlt-1" target="kDdogtKYeGdFu2iAVPlt-2">
          <mxGeometry relative="1" as="geometry" />
        </mxCell>
        <mxCell id="kDdogtKYeGdFu2iAVPlt-1" value="&lt;b&gt;Complaint Section&lt;/b&gt;" style="whiteSpace=wrap;html=1;fontSize=20;fillColor=none;rounded=1;strokeWidth=2;" vertex="1" parent="1">
          <mxGeometry x="1668" y="415" width="120" height="60" as="geometry" />
        </mxCell>
        <mxCell id="kDdogtKYeGdFu2iAVPlt-45" style="edgeStyle=orthogonalEdgeStyle;rounded=0;orthogonalLoop=1;jettySize=auto;html=1;strokeWidth=2;" edge="1" parent="1" source="kDdogtKYeGdFu2iAVPlt-2" target="kDdogtKYeGdFu2iAVPlt-3">
          <mxGeometry relative="1" as="geometry" />
        </mxCell>
        <mxCell id="kDdogtKYeGdFu2iAVPlt-2" value="&lt;b&gt;View Complaint&lt;/b&gt;" style="whiteSpace=wrap;html=1;fontSize=20;fillColor=none;rounded=1;strokeWidth=2;" vertex="1" parent="1">
          <mxGeometry x="1661.5" y="550" width="133" height="65.5" as="geometry" />
        </mxCell>
        <mxCell id="kDdogtKYeGdFu2iAVPlt-3" value="&lt;b&gt;Resolve Complaint&lt;/b&gt;" style="whiteSpace=wrap;html=1;fontSize=20;fillColor=none;rounded=1;strokeWidth=2;" vertex="1" parent="1">
          <mxGeometry x="1662" y="682" width="133" height="65.5" as="geometry" />
        </mxCell>
        <mxCell id="kDdogtKYeGdFu2iAVPlt-4" value="&lt;b&gt;View Awareness Campaign&lt;/b&gt;" style="whiteSpace=wrap;html=1;fontSize=20;fillColor=none;rounded=1;strokeWidth=2;" vertex="1" parent="1">
          <mxGeometry x="-356" y="525.38" width="185.5" height="92.75" as="geometry" />
        </mxCell>
        <mxCell id="kDdogtKYeGdFu2iAVPlt-5" value="&lt;b&gt;View Stats&lt;/b&gt;" style="whiteSpace=wrap;html=1;fontSize=20;fillColor=none;rounded=1;strokeWidth=2;" vertex="1" parent="1">
          <mxGeometry x="-143" y="525.38" width="120" height="60" as="geometry" />
        </mxCell>
        <mxCell id="kDdogtKYeGdFu2iAVPlt-27" style="edgeStyle=orthogonalEdgeStyle;rounded=0;orthogonalLoop=1;jettySize=auto;html=1;strokeWidth=2;" edge="1" parent="1" source="kDdogtKYeGdFu2iAVPlt-7" target="kDdogtKYeGdFu2iAVPlt-8">
          <mxGeometry relative="1" as="geometry" />
        </mxCell>
        <mxCell id="kDdogtKYeGdFu2iAVPlt-7" value="&lt;b&gt;View Survey&lt;/b&gt;" style="whiteSpace=wrap;html=1;fontSize=20;fillColor=none;rounded=1;strokeWidth=2;" vertex="1" parent="1">
          <mxGeometry x="-513.5" y="525.38" width="131" height="60" as="geometry" />
        </mxCell>
        <mxCell id="kDdogtKYeGdFu2iAVPlt-8" value="&lt;b&gt;Fill Survey&lt;/b&gt;" style="whiteSpace=wrap;html=1;fontSize=20;fillColor=none;rounded=1;strokeWidth=2;" vertex="1" parent="1">
          <mxGeometry x="-504.77" y="658" width="113.53" height="52" as="geometry" />
        </mxCell>
        <mxCell id="kDdogtKYeGdFu2iAVPlt-9" value="&lt;b&gt;View Survey Results&lt;/b&gt;" style="whiteSpace=wrap;html=1;fontSize=20;fillColor=none;rounded=1;strokeWidth=2;" vertex="1" parent="1">
          <mxGeometry x="1481" y="545.75" width="133" height="65.5" as="geometry" />
        </mxCell>
        <mxCell id="kDdogtKYeGdFu2iAVPlt-24" value="" style="group;strokeWidth=2;" vertex="1" connectable="0" parent="1">
          <mxGeometry x="-453" y="347" width="1052" height="68" as="geometry" />
        </mxCell>
        <mxCell id="kDdogtKYeGdFu2iAVPlt-13" style="edgeStyle=orthogonalEdgeStyle;rounded=0;orthogonalLoop=1;jettySize=auto;html=1;strokeWidth=2;endArrow=none;endFill=0;" edge="1" parent="kDdogtKYeGdFu2iAVPlt-24" source="ceck4IdtYcHGicZahIzw-18">
          <mxGeometry relative="1" as="geometry">
            <mxPoint x="771" y="4.25" as="targetPoint" />
          </mxGeometry>
        </mxCell>
        <mxCell id="kDdogtKYeGdFu2iAVPlt-11" value="" style="endArrow=none;html=1;rounded=0;strokeWidth=2;" edge="1" parent="kDdogtKYeGdFu2iAVPlt-24">
          <mxGeometry width="50" height="50" relative="1" as="geometry">
            <mxPoint as="sourcePoint" />
            <mxPoint x="1052" y="6" as="targetPoint" />
          </mxGeometry>
        </mxCell>
        <mxCell id="kDdogtKYeGdFu2iAVPlt-14" value="" style="endArrow=classic;html=1;rounded=0;entryX=0.5;entryY=0;entryDx=0;entryDy=0;strokeWidth=2;" edge="1" parent="kDdogtKYeGdFu2iAVPlt-24" target="ceck4IdtYcHGicZahIzw-44">
          <mxGeometry width="50" height="50" relative="1" as="geometry">
            <mxPoint x="5" as="sourcePoint" />
            <mxPoint x="93" y="14" as="targetPoint" />
          </mxGeometry>
        </mxCell>
        <mxCell id="kDdogtKYeGdFu2iAVPlt-15" value="" style="endArrow=classic;html=1;rounded=0;entryX=0.5;entryY=0;entryDx=0;entryDy=0;strokeWidth=2;" edge="1" parent="kDdogtKYeGdFu2iAVPlt-24">
          <mxGeometry width="50" height="50" relative="1" as="geometry">
            <mxPoint x="195" y="3" as="sourcePoint" />
            <mxPoint x="195" y="65" as="targetPoint" />
          </mxGeometry>
        </mxCell>
        <mxCell id="kDdogtKYeGdFu2iAVPlt-16" value="" style="endArrow=classic;html=1;rounded=0;entryX=0.5;entryY=0;entryDx=0;entryDy=0;strokeWidth=2;" edge="1" parent="kDdogtKYeGdFu2iAVPlt-24">
          <mxGeometry width="50" height="50" relative="1" as="geometry">
            <mxPoint x="371" y="3" as="sourcePoint" />
            <mxPoint x="371" y="68" as="targetPoint" />
          </mxGeometry>
        </mxCell>
        <mxCell id="kDdogtKYeGdFu2iAVPlt-17" value="" style="endArrow=classic;html=1;rounded=0;entryX=0.5;entryY=0;entryDx=0;entryDy=0;strokeWidth=2;" edge="1" parent="kDdogtKYeGdFu2iAVPlt-24">
          <mxGeometry width="50" height="50" relative="1" as="geometry">
            <mxPoint x="661" y="4" as="sourcePoint" />
            <mxPoint x="661" y="64" as="targetPoint" />
          </mxGeometry>
        </mxCell>
        <mxCell id="kDdogtKYeGdFu2iAVPlt-18" value="" style="endArrow=classic;html=1;rounded=0;entryX=0.5;entryY=0;entryDx=0;entryDy=0;strokeWidth=2;" edge="1" parent="kDdogtKYeGdFu2iAVPlt-24">
          <mxGeometry width="50" height="50" relative="1" as="geometry">
            <mxPoint x="1047" y="5" as="sourcePoint" />
            <mxPoint x="1047" y="64" as="targetPoint" />
          </mxGeometry>
        </mxCell>
        <mxCell id="kDdogtKYeGdFu2iAVPlt-25" value="" style="group;strokeWidth=2;" vertex="1" connectable="0" parent="1">
          <mxGeometry x="861" y="308" width="860" height="107" as="geometry" />
        </mxCell>
        <mxCell id="kDdogtKYeGdFu2iAVPlt-12" value="" style="endArrow=none;html=1;rounded=0;strokeWidth=2;" edge="1" parent="kDdogtKYeGdFu2iAVPlt-25">
          <mxGeometry width="50" height="50" relative="1" as="geometry">
            <mxPoint x="9" y="39" as="sourcePoint" />
            <mxPoint x="860" y="45" as="targetPoint" />
          </mxGeometry>
        </mxCell>
        <mxCell id="kDdogtKYeGdFu2iAVPlt-19" value="" style="endArrow=classic;html=1;rounded=0;entryX=0.5;entryY=0;entryDx=0;entryDy=0;strokeWidth=2;" edge="1" parent="kDdogtKYeGdFu2iAVPlt-25">
          <mxGeometry width="50" height="50" relative="1" as="geometry">
            <mxPoint x="14" y="40" as="sourcePoint" />
            <mxPoint x="14" y="104" as="targetPoint" />
          </mxGeometry>
        </mxCell>
        <mxCell id="kDdogtKYeGdFu2iAVPlt-20" value="" style="endArrow=classic;html=1;rounded=0;entryX=0.5;entryY=0;entryDx=0;entryDy=0;strokeWidth=2;" edge="1" parent="kDdogtKYeGdFu2iAVPlt-25">
          <mxGeometry width="50" height="50" relative="1" as="geometry">
            <mxPoint x="264" y="40" as="sourcePoint" />
            <mxPoint x="264" y="104" as="targetPoint" />
          </mxGeometry>
        </mxCell>
        <mxCell id="kDdogtKYeGdFu2iAVPlt-21" value="" style="endArrow=classic;html=1;rounded=0;entryX=0.5;entryY=0;entryDx=0;entryDy=0;strokeWidth=2;" edge="1" parent="kDdogtKYeGdFu2iAVPlt-25">
          <mxGeometry width="50" height="50" relative="1" as="geometry">
            <mxPoint x="584" y="43" as="sourcePoint" />
            <mxPoint x="584" y="107" as="targetPoint" />
          </mxGeometry>
        </mxCell>
        <mxCell id="kDdogtKYeGdFu2iAVPlt-22" value="" style="endArrow=classic;html=1;rounded=0;entryX=0.5;entryY=0;entryDx=0;entryDy=0;strokeWidth=2;" edge="1" parent="kDdogtKYeGdFu2iAVPlt-25">
          <mxGeometry width="50" height="50" relative="1" as="geometry">
            <mxPoint x="859" y="43" as="sourcePoint" />
            <mxPoint x="859" y="107" as="targetPoint" />
          </mxGeometry>
        </mxCell>
        <mxCell id="kDdogtKYeGdFu2iAVPlt-23" value="" style="endArrow=none;html=1;rounded=0;entryX=0.5;entryY=1;entryDx=0;entryDy=0;strokeWidth=2;" edge="1" parent="kDdogtKYeGdFu2iAVPlt-25" target="ceck4IdtYcHGicZahIzw-19">
          <mxGeometry width="50" height="50" relative="1" as="geometry">
            <mxPoint x="439" y="41" as="sourcePoint" />
            <mxPoint x="468" y="-35" as="targetPoint" />
            <Array as="points">
              <mxPoint x="439" y="6" />
              <mxPoint />
            </Array>
          </mxGeometry>
        </mxCell>
        <mxCell id="kDdogtKYeGdFu2iAVPlt-29" style="edgeStyle=orthogonalEdgeStyle;rounded=0;orthogonalLoop=1;jettySize=auto;html=1;entryX=0.533;entryY=-0.016;entryDx=0;entryDy=0;entryPerimeter=0;strokeWidth=2;" edge="1" parent="1" source="ceck4IdtYcHGicZahIzw-41" target="kDdogtKYeGdFu2iAVPlt-4">
          <mxGeometry relative="1" as="geometry" />
        </mxCell>
        <mxCell id="kDdogtKYeGdFu2iAVPlt-43" style="edgeStyle=orthogonalEdgeStyle;rounded=0;orthogonalLoop=1;jettySize=auto;html=1;entryX=0.553;entryY=0.053;entryDx=0;entryDy=0;entryPerimeter=0;strokeWidth=2;" edge="1" parent="1" source="ceck4IdtYcHGicZahIzw-52" target="ceck4IdtYcHGicZahIzw-53">
          <mxGeometry relative="1" as="geometry" />
        </mxCell>
        <mxCell id="kDdogtKYeGdFu2iAVPlt-50" style="edgeStyle=orthogonalEdgeStyle;rounded=0;orthogonalLoop=1;jettySize=auto;html=1;entryX=0.5;entryY=0;entryDx=0;entryDy=0;strokeWidth=2;" edge="1" parent="1" source="kDdogtKYeGdFu2iAVPlt-47" target="kDdogtKYeGdFu2iAVPlt-48">
          <mxGeometry relative="1" as="geometry">
            <Array as="points">
              <mxPoint x="1277" y="873" />
              <mxPoint x="598" y="873" />
            </Array>
          </mxGeometry>
        </mxCell>
        <mxCell id="kDdogtKYeGdFu2iAVPlt-47" value="" style="rounded=1;whiteSpace=wrap;html=1;fillColor=none;strokeWidth=2;" vertex="1" parent="1">
          <mxGeometry x="727" y="174" width="1100" height="631" as="geometry" />
        </mxCell>
        <mxCell id="kDdogtKYeGdFu2iAVPlt-52" style="edgeStyle=orthogonalEdgeStyle;rounded=0;orthogonalLoop=1;jettySize=auto;html=1;entryX=0.5;entryY=0;entryDx=0;entryDy=0;strokeWidth=2;" edge="1" parent="1" source="kDdogtKYeGdFu2iAVPlt-48" target="kDdogtKYeGdFu2iAVPlt-51">
          <mxGeometry relative="1" as="geometry" />
        </mxCell>
        <mxCell id="kDdogtKYeGdFu2iAVPlt-48" value="&lt;b&gt;Login&lt;/b&gt;" style="whiteSpace=wrap;html=1;fontSize=20;fillColor=none;rounded=1;strokeWidth=2;" vertex="1" parent="1">
          <mxGeometry x="538" y="977" width="120" height="60" as="geometry" />
        </mxCell>
        <mxCell id="kDdogtKYeGdFu2iAVPlt-51" value="" style="ellipse;html=1;shape=endState;fillColor=#000000;strokeColor=light-dark(#000000,#FF9090);strokeWidth=2;" vertex="1" parent="1">
          <mxGeometry x="577" y="1121" width="41" height="41" as="geometry" />
        </mxCell>
      </root>
    </mxGraphModel>
  </diagram>
</mxfile>
